<?xml version="1.0" standalone="no"?>
<!DOCTYPE svg PUBLIC "-//W3C//DTD SVG 20010904//EN"
 "http://www.w3.org/TR/2001/REC-SVG-20010904/DTD/svg10.dtd">
<svg version="1.0" xmlns="http://www.w3.org/2000/svg"
 width="203.000000pt" height="203.000000pt" viewBox="0 0 203.000000 203.000000"
 preserveAspectRatio="xMidYMid meet">
<metadata>
Created by potrace 1.14, written by Peter Selinger 2001-2017
</metadata>
<g transform="translate(0.000000,203.000000) scale(0.100000,-0.100000)"
fill="#000000" stroke="none">
<path d="M819 2024 c0 -5 -2 -97 -2 -204 l-2 -195 -70 -6 c-246 -23 -463 -153
-601 -361 -46 -69 -95 -177 -108 -238 -4 -19 -11 -48 -14 -65 -4 -16 -7 -84
-6 -150 0 -162 24 -246 115 -414 33 -60 158 -191 224 -236 97 -64 194 -106
306 -131 59 -13 205 -16 275 -4 271 43 489 206 610 455 15 32 30 64 31 70 1 5
10 35 18 65 9 30 18 82 22 116 l6 61 -304 -1 -303 -1 -8 -33 c-5 -19 -28 -53
-52 -77 -124 -124 -330 -43 -340 133 -5 88 57 173 144 200 23 8 205 11 540 11
278 0 551 0 608 1 l102 0 -5 28 c-51 283 -229 566 -470 744 -130 96 -330 186
-478 214 -12 2 -33 6 -47 9 -53 10 -190 17 -191 9z m446 -460 c28 -19 49 -74
40 -106 -19 -62 -88 -93 -143 -64 -34 18 -48 38 -53 76 -9 83 85 140 156 94z"/>
</g>
</svg>
