<svg width="50" height="51" viewBox="0 0 50 51" fill="none" xmlns="http://www.w3.org/2000/svg">
<path id="Logo" fill-rule="evenodd" clip-rule="evenodd" d="M20.163 0C24.1346 0 28.0673 0.782261 31.7366 2.30212C35.4058 3.82198 38.7398 6.04966 41.5481 8.858C44.3565 11.6663 46.5842 15.0003 48.104 18.6696C48.9891 20.8063 49.624 23.0324 50 25.3035H20.165H20.058V25.3046C17.3236 25.3615 15.1244 27.5959 15.1244 30.344C15.1244 33.1278 17.3812 35.3845 20.165 35.3845C22.7093 35.3845 24.8133 33.4994 25.1565 31.0496H40.3121C39.9403 41.858 31.0611 50.506 20.1621 50.506C9.0269 50.506 0 41.4791 0 30.3439C0 19.2086 9.0269 10.1817 20.1621 10.1817H20.163V0ZM29.943 16.2303C31.3349 16.2303 32.4633 15.1019 32.4633 13.71C32.4633 12.3181 31.3349 11.1898 29.943 11.1898C28.5511 11.1898 27.4227 12.3181 27.4227 13.71C27.4227 15.1019 28.5511 16.2303 29.943 16.2303Z" fill="#E9FF70"/>
</svg>
